<?xml version="1.0" standalone="no"?><!DOCTYPE svg PUBLIC "-//W3C//DTD SVG 1.1//EN" "http://www.w3.org/Graphics/SVG/1.1/DTD/svg11.dtd"><svg t="1629534147934" class="icon" viewBox="0 0 1024 1024" version="1.1" xmlns="http://www.w3.org/2000/svg" p-id="35434" xmlns:xlink="http://www.w3.org/1999/xlink" width="128" height="128"><defs><style type="text/css"></style></defs><path d="M190.12608 173.312H833.536c71.0656 0 128.67584 57.61024 128.67584 128.68608v562.9952a80.42496 80.42496 0 0 1-80.42496 80.42496H190.12608C119.06048 945.41824 61.44 887.79776 61.44 816.73216V301.99808c0-71.0656 57.61024-128.68608 128.68608-128.68608z" fill="#BAE7FF" p-id="35435"></path><path d="M190.12608 173.312H833.536c71.0656 0 128.67584 57.61024 128.67584 128.68608v402.13504L833.54624 820.26496l-1.93536 1.93536-126.75072 123.21792H190.12608C119.06048 945.41824 61.44 887.79776 61.44 816.73216V301.99808c0-71.0656 57.61024-128.68608 128.68608-128.68608z" fill="#1890FF" p-id="35436"></path><path d="M190.12608 173.312H833.536c71.0656 0 128.67584 57.61024 128.67584 128.68608v402.13504H786.24768a80.42496 80.42496 0 0 0-80.42496 80.42496v160.86016H190.12608C119.06048 945.41824 61.44 887.79776 61.44 816.73216V301.99808c0-71.0656 57.61024-128.68608 128.68608-128.68608z" fill="#40A9FF" p-id="35437"></path><path d="M350.976 76.8a32.17408 32.17408 0 0 1 32.17408 32.17408v147.01568a32.17408 32.17408 0 0 1-64.33792 0V108.97408A32.17408 32.17408 0 0 1 350.976 76.8z m321.71008 0a32.17408 32.17408 0 0 1 32.17408 32.17408v147.01568a32.17408 32.17408 0 1 1-64.34816 0V108.97408A32.17408 32.17408 0 0 1 672.68608 76.8zM286.63808 495.02208a48.26112 48.26112 0 1 0 96.512 0 48.26112 48.26112 0 0 0-96.512 0zM511.83616 462.848h193.024a32.17408 32.17408 0 0 1 0 64.34816h-193.024a32.17408 32.17408 0 1 1 0-64.34816z m0 160.86016h193.024a32.17408 32.17408 0 0 1 0 64.33792h-193.024a32.17408 32.17408 0 0 1 0-64.33792zM286.63808 655.872a48.26112 48.26112 0 1 0 96.512 0 48.26112 48.26112 0 0 0-96.512 0z" fill="#BAE7FF" p-id="35438"></path></svg>